<svg width="96" height="32" viewBox="0 0 96 32" fill="none" xmlns="http://www.w3.org/2000/svg">
<path d="M17.4436 28.0931V6.91032V6.8756C17.4436 6.25053 16.8839 5.78173 16.2123 5.78173C15.5779 5.78173 15.0369 6.23317 14.9996 6.82351V7.91737C13.6937 6.2158 11.7348 5.34766 9.17886 5.34766C6.52968 5.34766 4.30959 6.25053 2.57456 8.05628C0.876842 9.84466 0 12.2928 0 15.3314C0 18.1789 0.764905 20.4708 2.27606 22.1724C3.80587 23.8913 5.8394 24.7594 8.33933 24.7594C11.2497 24.7594 13.4884 23.7524 14.9996 21.7904V28.2668C15.3541 27.9889 15.8391 27.8153 16.3428 27.8153C16.7346 27.798 17.1264 27.9021 17.4436 28.0931ZM14.9996 16.3384C14.9996 18.0921 14.4213 19.6026 13.3019 20.8007C12.2012 21.9987 10.5594 22.6064 8.45127 22.6064C6.69758 22.6064 5.29837 21.9814 4.19765 20.6791C3.09693 19.3769 2.51859 17.5538 2.51859 15.2445C2.51859 12.779 3.1529 10.8517 4.40287 9.4974C5.65283 8.14309 7.18264 7.4833 9.06692 7.4833C10.9512 7.4833 12.3691 8.00419 13.4325 9.09805C14.4772 10.1746 14.9996 11.581 14.9996 13.2652V16.3384Z" fill="white"/>
<path d="M20.9319 26.5308C20.6147 26.5308 20.3162 26.6523 20.0923 26.8433L17.7044 29.0831C17.7044 29.0831 17.6297 29.1699 17.5178 29.1352C17.4618 29.1178 17.4432 29.0657 17.4432 29.031C17.2006 28.6838 16.7902 28.4754 16.3425 28.4754C15.6149 28.4754 15.0365 29.0136 14.9992 29.6734C14.9992 29.7082 14.9992 29.7429 14.9992 29.7429C14.9992 30.0728 15.1298 30.3679 15.391 30.5763L15.4283 30.611L16.5104 31.6354L16.5663 31.6875H16.585C16.585 31.6875 16.585 31.6875 16.585 31.7049C16.6036 31.7222 16.6223 31.7396 16.6596 31.7743C16.6969 31.7917 16.7156 31.8264 16.7529 31.8438C16.7902 31.8611 16.8089 31.8785 16.8462 31.8959C16.8835 31.9132 16.9021 31.9306 16.9395 31.9306H16.9581C16.9954 31.948 17.0141 31.948 17.0514 31.9653H17.07C17.1074 31.9827 17.126 31.9827 17.1633 31.9827H17.182C17.2193 31.9827 17.238 32.0001 17.2753 32.0001C17.2939 32.0001 17.2939 32.0001 17.3126 32.0001C17.3499 32.0001 17.3872 32.0001 17.4432 32.0001C17.4805 32.0001 17.5178 32.0001 17.5738 32.0001C17.5924 32.0001 17.5924 32.0001 17.6111 32.0001C17.6484 32.0001 17.667 32 17.7044 31.9827H17.723C17.7603 31.9827 17.779 31.9653 17.8163 31.9653H17.8349C17.8723 31.948 17.9096 31.948 17.9282 31.9306C17.9655 31.9132 18.0029 31.8959 18.0215 31.8785C18.1334 31.8264 18.2267 31.757 18.3014 31.6702L21.7714 28.4233C21.9953 28.215 22.1259 27.9372 22.1259 27.6246C22.1445 27.0516 21.6035 26.5308 20.9319 26.5308Z" fill="white"/>
<path d="M35.1484 5.7991C34.4954 5.7991 33.9171 6.2679 33.8984 6.87561V16.3732C33.8984 17.3282 33.7492 18.1963 33.4693 18.9777C33.1895 19.759 32.779 20.4362 32.2753 20.9918C31.7716 21.5474 31.156 21.9815 30.447 22.294C29.7381 22.6066 28.9545 22.7628 28.115 22.7628C26.3613 22.7628 25.074 22.2246 24.2158 21.1654C23.3763 20.1063 22.9472 18.4742 22.9472 16.2517V8.55983V6.91034V6.87561C22.9472 6.25054 22.3875 5.78174 21.7159 5.78174C21.0816 5.78174 20.5406 6.23318 20.5033 6.82352V6.84089L20.4659 16.6684C20.4659 22.0336 22.8353 24.7249 27.5553 24.7249C30.2045 24.7249 32.3126 23.6831 33.6745 21.5822C33.7492 21.4606 33.9357 21.5127 33.9357 21.6516C33.9357 21.6516 33.9544 23.631 33.9544 23.6484C33.9544 24.2734 34.4954 24.777 35.167 24.777C35.8387 24.777 36.3797 24.2734 36.3797 23.6484L36.3984 6.84089C36.3424 6.25054 35.8014 5.7991 35.1484 5.7991Z" fill="white"/>
<path d="M94.3814 6.94501V6.91028C94.3814 6.28521 93.8217 5.81641 93.1501 5.81641C92.5158 5.81641 91.9748 6.26785 91.9374 6.85819V6.87555L91.9561 23.6309V23.6656C91.9561 24.2907 92.5158 24.7595 93.1874 24.7595C93.8217 24.7595 94.3627 24.3081 94.4 23.7351V23.7177L94.3814 6.94501Z" fill="white"/>
<path d="M48.2079 5.48568C47.9467 5.45096 47.6668 5.43359 47.3497 5.43359C46.734 5.43359 46.1557 5.53777 45.6147 5.72876C45.055 5.91976 44.5513 6.19756 44.0849 6.56219C43.6184 6.92681 43.208 7.37825 42.8535 7.9165C42.4991 8.45475 42.2006 9.06245 41.9767 9.73961H41.9021V6.90945V6.87472C41.9021 6.24965 41.3424 5.78085 40.6708 5.78085C40.0365 5.78085 39.4954 6.23229 39.4581 6.82263V6.83999L39.4395 23.6821C39.4395 24.3071 39.9991 24.7759 40.6708 24.7759C41.3051 24.7759 41.8461 24.3245 41.8834 23.7515V23.7342L41.9021 15.2437C41.9021 14.7228 41.9394 14.3755 42.014 13.8025C42.0886 13.2296 42.2006 12.6566 42.3685 12.0836C42.5364 11.5106 42.7416 10.9724 43.0028 10.4515C43.264 9.9306 43.5998 9.4618 43.9729 9.06246C44.346 8.66311 44.7938 8.35057 45.2975 8.10749C45.8012 7.86441 46.3796 7.69078 47.0512 7.69078C47.2937 7.69078 47.331 7.67342 47.9467 7.72551C48.0027 7.72551 48.0586 7.74287 48.1146 7.74287C48.7862 7.74287 49.3273 7.23934 49.3273 6.61428C49.3086 6.02393 48.8235 5.53777 48.2079 5.48568Z" fill="white"/>
<path d="M66.1725 10.5761C65.818 9.46485 65.3143 8.52725 64.6426 7.76328C63.971 6.99931 63.1501 6.3916 62.1614 5.99226C61.1726 5.57554 60.0532 5.36719 58.7659 5.36719C57.46 5.36719 56.2473 5.61027 55.1466 6.09643C54.0459 6.5826 53.0944 7.25975 52.2922 8.1279C51.49 8.99605 50.8557 10.0031 50.408 11.1838C49.9602 12.3645 49.7363 13.6493 49.7363 15.0384C49.7363 16.5837 49.9415 17.9554 50.352 19.1534C50.7624 20.3514 51.3594 21.3759 52.1243 22.1919C52.8892 23.0253 53.822 23.6504 54.9041 24.0845C55.9862 24.5186 57.1988 24.7269 58.5421 24.7269C60.9301 24.7269 63.0009 24.2408 64.7546 23.2511C64.7732 23.2337 64.8105 23.2163 64.8292 23.199C64.8852 23.1643 64.9411 23.1295 64.9971 23.1122C65.0904 23.0427 65.165 22.9559 65.221 22.8691C65.3143 22.7302 65.3889 22.5392 65.3889 22.3656C65.3889 21.9488 65.0904 21.5842 64.68 21.4627C64.5867 21.428 64.4747 21.4106 64.3628 21.4106C64.2136 21.4106 64.0643 21.4453 63.971 21.48C63.8777 21.5148 63.8404 21.5495 63.7658 21.5842C63.5419 21.7058 63.2994 21.8099 63.0569 21.9141C61.7882 22.4524 60.4637 22.7302 59.0831 22.7302C58.0383 22.7302 56.9563 22.626 56.1168 22.2787C55.2772 21.9488 54.5683 21.4627 53.9899 20.8376C53.4116 20.2125 52.9639 19.4486 52.6467 18.5457C52.3669 17.7296 52.2736 16.8094 52.3109 15.8023C52.3109 15.6114 52.4788 15.4377 52.684 15.4377H65.221C65.221 15.4377 65.4075 15.4204 65.4635 15.4204C66.1165 15.4204 66.6389 14.9516 66.6762 14.3439C66.6762 14.3439 66.6762 14.2223 66.6762 14.2049C66.6762 12.8854 66.5083 11.67 66.1725 10.5761ZM63.7471 13.441H52.8333C52.5907 13.441 52.4228 13.25 52.4601 13.0243C52.6094 12.2429 52.8333 11.531 53.1318 10.906C53.4862 10.1594 53.934 9.51694 54.475 8.99605C55.016 8.47516 55.6503 8.07581 56.3593 7.79801C57.0869 7.5202 57.8518 7.38129 58.6913 7.38129C60.3704 7.38129 61.695 7.91955 62.6278 8.97869C63.5046 9.96838 64.0083 11.3401 64.083 13.0937C64.1203 13.2673 63.9524 13.441 63.7471 13.441Z" fill="white"/>
<path d="M88.9157 22.574V12.2777C88.9157 9.98575 88.3934 8.24945 87.274 7.10349C86.136 5.94017 84.4756 5.36719 82.2555 5.36719L82.7219 5.38455C80.3339 5.38455 78.2631 5.87072 76.5094 6.86041C76.4907 6.87777 76.4534 6.89513 76.4347 6.9125C76.3788 6.94722 76.3228 6.98195 76.2668 6.99931C76.1736 7.06876 76.0989 7.15558 76.043 7.2424C75.9497 7.39866 75.8751 7.57229 75.8751 7.74592C75.8751 8.16264 76.1736 8.52726 76.584 8.6488C76.6773 8.68353 76.7892 8.70089 76.9011 8.70089C77.0131 8.70089 77.125 8.68353 77.2183 8.6488C78.6735 7.83274 80.2033 7.41603 81.8077 7.3813C81.8824 7.3813 81.957 7.3813 82.0129 7.3813C82.0129 7.3813 82.0316 7.3813 82.0503 7.3813C84.9233 7.3813 86.4158 9.04815 86.4904 12.4166C86.4904 12.5902 86.3598 12.7465 86.1733 12.7638L80.4645 13.5278C78.1698 13.8056 76.4907 14.4654 75.3713 15.4551C74.252 16.4448 73.7109 17.7818 73.7109 19.466C73.7109 20.2473 73.8602 20.9592 74.14 21.619C74.4385 22.2614 74.849 22.8344 75.39 23.2858C75.931 23.7546 76.584 24.1019 77.3489 24.3623C78.1138 24.6228 78.9906 24.7443 79.9421 24.7443C81.36 24.7443 82.6099 24.4144 83.7293 23.772C84.6994 23.199 85.5576 22.4698 86.1919 21.5148C86.2666 21.4106 86.4531 21.4454 86.4531 21.5843V22.5913V23.6505V23.6852C86.4531 24.3103 87.0128 24.7791 87.6844 24.7791C88.3187 24.7791 88.8598 24.3276 88.8971 23.7373V23.7199V22.574H88.9157ZM86.4718 16.4795C86.4718 17.3824 86.3225 18.2158 86.024 18.9972C85.7255 19.7611 85.2964 20.4383 84.7554 20.9939C84.2144 21.5495 83.5801 21.9836 82.8525 22.2961C82.1062 22.6087 81.304 22.7649 80.4272 22.7649C79.7742 22.7649 79.1959 22.6781 78.6921 22.5045C78.1884 22.3309 77.7407 22.1052 77.3862 21.7926C77.0317 21.4801 76.7519 21.1155 76.5653 20.6987C76.3788 20.282 76.2855 19.8132 76.2855 19.3271C76.2855 18.6673 76.3788 18.1117 76.584 17.6602C76.7706 17.2088 77.0877 16.8268 77.4981 16.5143C77.9086 16.2017 78.431 15.9586 79.0653 15.785C79.6996 15.6114 80.4645 15.4551 81.36 15.3336L86.0613 14.7259C86.2852 14.6911 86.4904 14.8648 86.4904 15.0731V16.4795H86.4718Z" fill="white"/>
<path d="M70.8938 21.7384C70.7259 21.5821 70.5206 21.4606 70.2968 21.3738C70.0729 21.287 69.8304 21.2349 69.5692 21.2349C69.0468 21.2349 68.599 21.4085 68.2446 21.7384C67.8901 22.0683 67.7036 22.485 67.7036 22.9885C67.7036 23.4747 67.8901 23.8741 68.2446 24.2213C68.599 24.5512 69.0468 24.7249 69.5692 24.7249C69.8304 24.7249 70.0729 24.6728 70.2968 24.586C70.5206 24.4991 70.7259 24.3776 70.8938 24.2213C71.0617 24.0651 71.1923 23.8741 71.3042 23.6657C71.4161 23.4573 71.4534 23.2316 71.4534 22.9885C71.4534 22.7281 71.3975 22.5024 71.3042 22.2767C71.2109 22.0509 71.0617 21.8947 70.8938 21.7384Z" fill="white"/>
<path d="M94.867 1.04178C94.755 0.833422 94.6244 0.642429 94.4565 0.486163C94.2886 0.329896 94.0834 0.208355 93.8595 0.121541C93.6543 0.0520889 93.4118 0 93.1506 0C92.6282 0 92.1805 0.17363 91.826 0.503526C91.4715 0.833422 91.285 1.25013 91.285 1.75366C91.285 2.23982 91.4715 2.63917 91.826 2.98643C92.1805 3.31632 92.6282 3.48995 93.1506 3.48995C93.4118 3.48995 93.6543 3.43786 93.8782 3.35105C94.1021 3.26423 94.3073 3.14269 94.4752 2.98643C94.6431 2.83016 94.7737 2.63917 94.8856 2.43081C94.9976 2.22246 95.0349 1.99674 95.0349 1.75366C95.0349 1.49321 94.9789 1.2675 94.867 1.04178Z" fill="white"/>
</svg>